<svg width="16" height="16" viewBox="0 0 16 16" fill="none" xmlns="http://www.w3.org/2000/svg">
<path d="M4.99512 5.25C5.48964 5.25078 5.97682 5.38967 6.41211 5.6543C6.84735 5.91891 7.34289 6.47208 7.61523 6.9375V9.75C7.61523 10.3124 6.84745 11.3321 6.41211 11.5967C5.97683 11.8609 5.48948 11.9995 4.99512 12H3V3H4.99512V5.25ZM4.99512 9.75C5.25971 9.75 5.51406 9.63183 5.70117 9.4209C5.88829 9.20991 5.99316 8.92338 5.99316 8.625C5.99312 8.32681 5.88812 8.041 5.70117 7.83008C5.51405 7.61909 5.25975 7.5 4.99512 7.5V9.75Z" fill="#F1738F"/>
<path d="M10.6211 3.32227C10.9766 3.32227 11.3125 3.36523 11.6289 3.45117C11.9453 3.53711 12.2227 3.66602 12.4609 3.83789C12.6992 4.00977 12.8887 4.22461 13.0293 4.48242C13.1699 4.74023 13.2402 5.04297 13.2402 5.39062C13.2402 5.64844 13.2012 5.88281 13.123 6.09375C13.0449 6.30078 12.9375 6.49023 12.8008 6.66211C12.6641 6.83008 12.502 6.98047 12.3145 7.11328C12.127 7.24609 11.9238 7.36719 11.7051 7.47656C11.9316 7.59766 12.1523 7.73242 12.3672 7.88086C12.5859 8.0293 12.7793 8.19727 12.9473 8.38477C13.1152 8.56836 13.25 8.77539 13.3516 9.00586C13.4531 9.23633 13.5039 9.49414 13.5039 9.7793C13.5039 10.1348 13.4336 10.457 13.293 10.7461C13.1523 11.0352 12.9551 11.2812 12.7012 11.4844C12.4473 11.6875 12.1426 11.8438 11.7871 11.9531C11.4355 12.0625 11.0469 12.1172 10.6211 12.1172C10.1602 12.1172 9.75 12.0645 9.39062 11.959C9.03125 11.8535 8.72852 11.7031 8.48242 11.5078C8.23633 11.3125 8.04883 11.0723 7.91992 10.7871C7.79492 10.502 7.73242 10.1816 7.73242 9.82617C7.73242 9.5332 7.77539 9.26953 7.86133 9.03516C7.94727 8.80078 8.06445 8.58984 8.21289 8.40234C8.36133 8.21484 8.53516 8.04883 8.73438 7.9043C8.93359 7.75977 9.14648 7.63281 9.37305 7.52344C9.18164 7.40234 9.00195 7.27148 8.83398 7.13086C8.66602 6.98633 8.51953 6.82812 8.39453 6.65625C8.27344 6.48047 8.17578 6.28711 8.10156 6.07617C8.03125 5.86523 7.99609 5.63281 7.99609 5.37891C7.99609 5.03906 8.06641 4.74219 8.20703 4.48828C8.35156 4.23047 8.54492 4.01562 8.78711 3.84375C9.0293 3.66797 9.30859 3.53711 9.625 3.45117C9.94141 3.36523 10.2734 3.32227 10.6211 3.32227ZM9.4082 9.7207C9.4082 9.87695 9.43359 10.0215 9.48438 10.1543C9.53516 10.2832 9.60938 10.3945 9.70703 10.4883C9.80859 10.582 9.93359 10.6562 10.082 10.7109C10.2305 10.7617 10.4023 10.7871 10.5977 10.7871C11.0078 10.7871 11.3145 10.6914 11.5176 10.5C11.7207 10.3047 11.8223 10.0488 11.8223 9.73242C11.8223 9.56836 11.7871 9.42188 11.7168 9.29297C11.6504 9.16016 11.5625 9.03906 11.4531 8.92969C11.3477 8.81641 11.2266 8.71289 11.0898 8.61914C10.9531 8.52539 10.8164 8.43555 10.6797 8.34961L10.5508 8.26758C10.3789 8.35352 10.2227 8.44727 10.082 8.54883C9.94141 8.64648 9.82031 8.75586 9.71875 8.87695C9.62109 8.99414 9.54492 9.12305 9.49023 9.26367C9.43555 9.4043 9.4082 9.55664 9.4082 9.7207ZM10.6094 4.64648C10.4805 4.64648 10.3594 4.66602 10.2461 4.70508C10.1367 4.74414 10.041 4.80078 9.95898 4.875C9.88086 4.94922 9.81836 5.04102 9.77148 5.15039C9.72461 5.25977 9.70117 5.38281 9.70117 5.51953C9.70117 5.68359 9.72461 5.82617 9.77148 5.94727C9.82227 6.06445 9.88867 6.16992 9.9707 6.26367C10.0566 6.35352 10.1543 6.43555 10.2637 6.50977C10.377 6.58008 10.4961 6.65039 10.6211 6.7207C10.7422 6.6582 10.8574 6.58984 10.9668 6.51562C11.0762 6.44141 11.1719 6.35742 11.2539 6.26367C11.3398 6.16602 11.4082 6.05664 11.459 5.93555C11.5098 5.81445 11.5352 5.67578 11.5352 5.51953C11.5352 5.38281 11.5117 5.25977 11.4648 5.15039C11.418 5.04102 11.3535 4.94922 11.2715 4.875C11.1895 4.80078 11.0918 4.74414 10.9785 4.70508C10.8652 4.66602 10.7422 4.64648 10.6094 4.64648Z" fill="#F1738F"/>
</svg>
