<svg width="16" height="16" viewBox="0 0 16 16" fill="none" xmlns="http://www.w3.org/2000/svg">
<path fill-rule="evenodd" clip-rule="evenodd" d="M0 4V12H1.72951C2.15796 11.9995 2.57963 11.8764 2.95687 11.6415C3.33412 11.4066 3.8914 10.5 3.8914 10V7.348C3.65538 6.93428 3.3344 6.59463 2.95715 6.3594C2.57989 6.12417 2.15811 6.00069 1.72951 6V4H0ZM1.72951 8C1.95886 8 2.17881 8.10536 2.34099 8.29289C2.50316 8.48043 2.59427 8.73478 2.59427 9C2.59427 9.26522 2.50316 9.51957 2.34099 9.70711C2.17881 9.89464 1.95886 10 1.72951 10V8Z" fill="#F1738F"/>
<path d="M15.0121 6.3262C15.4121 6.56158 15.7525 6.91296 16 7.346L15.998 9H15.5676H12.9734C12.9734 9.26522 13.0645 9.51957 13.2266 9.70711C13.3888 9.89464 13.6088 10 13.8381 10H14.7029V12H13.8381C13.3893 12.0005 12.948 11.8663 12.5574 11.6106C12.1668 11.3548 11.8403 10.9862 11.6097 10.5409C11.3792 10.0955 11.2525 9.5886 11.2421 9.06969C11.2316 8.55077 11.5502 7.58034 11.5502 7.58034C11.7626 7.12308 12.074 6.73738 12.4539 6.46092C12.8338 6.18447 13.2692 6.02672 13.7176 6.00311C14.166 5.97949 14.612 6.09082 15.0121 6.3262Z" fill="#F1738F"/>
<path d="M7.78281 9V4H9.51232V6H11.2418V8H9.51232V9C9.51232 9.26522 9.60343 9.51957 9.7656 9.70711C9.92777 9.89464 10.1477 10 10.3771 10H11.2418V12H10.3771C9.68903 12 9.02917 11.6839 8.54265 11.1213C8.05613 10.5587 7.78281 9.79565 7.78281 9Z" fill="#F1738F"/>
<path d="M3.24166 6.9H3.39062H5.20584H5.27933L5.30128 6.97013L6.25759 10.0255H6.53404L7.46892 6.97074L7.49056 6.9H7.56454H9.39062H9.53606L9.484 7.0358L7.08183 13.3016C7.08183 13.3016 7.08183 13.3016 7.08182 13.3016C6.85239 13.9005 6.53637 14.354 6.12919 14.6533C5.72095 14.9532 5.21346 15.1 4.61345 15.1C4.42234 15.1 4.25468 15.09 4.1112 15.0693M3.24166 6.9L4.12432 14.9702M3.24166 6.9L3.29807 7.03787L5.57678 12.6067M3.24166 6.9L3.43154 7.1L5.6841 12.605M4.1112 15.0693C4.11081 15.0693 4.11042 15.0692 4.11003 15.0692L4.12432 14.9702M4.1112 15.0693C4.11159 15.0694 4.11198 15.0694 4.11238 15.0695L4.12432 14.9702M4.1112 15.0693C3.97229 15.0526 3.85212 15.034 3.75115 15.0135L3.67106 14.9973V14.9155V13.713V13.5889L3.79233 13.6153C3.86396 13.6309 3.95638 13.6454 4.07046 13.6584C4.18232 13.6712 4.29989 13.6776 4.42323 13.6776C4.58942 13.6776 4.72617 13.657 4.83589 13.6186C4.94769 13.5796 5.04068 13.5248 5.11663 13.4554L5.11968 13.4526L5.11973 13.4527C5.20061 13.3846 5.26917 13.3014 5.32524 13.2018L5.32646 13.1997L5.32649 13.1997C5.3878 13.0969 5.44121 12.9807 5.48636 12.8505L5.48707 12.8484L5.48709 12.8484L5.57678 12.6067M4.12432 14.9702C3.98664 14.9536 3.86889 14.9354 3.77106 14.9155V13.8152C3.76383 13.8138 3.75674 13.8123 3.74979 13.8108L3.77106 13.713H3.87106V13.732C3.92649 13.7412 3.98917 13.7498 4.0591 13.7578C4.17505 13.771 4.29642 13.7776 4.42323 13.7776C4.59715 13.7776 4.7457 13.7561 4.86889 13.713C4.99207 13.67 5.09715 13.6087 5.1841 13.5292C5.27468 13.453 5.35077 13.3602 5.41236 13.2509C5.47758 13.1416 5.53374 13.019 5.58084 12.8832L5.6841 12.605M5.57678 12.6067L5.59155 12.6428L5.6841 12.605M5.57678 12.6067L5.59035 12.5702L5.6841 12.605M9.39062 7L9.35229 7.1H9.39062V7ZM9.39062 7L9.29725 6.9642L9.28353 7H9.39062ZM6.54772 10.0217C6.552 10.0183 6.55775 10.014 6.56165 10.0115C6.56904 10.0075 6.58693 10.0008 6.59741 9.99858C6.60904 9.99751 6.63193 9.99968 6.64546 10.0031L6.64623 10.0006C6.64502 10.0001 6.64388 9.9997 6.64283 9.99934C6.63322 9.99709 6.61431 9.99548 6.60518 9.99599C6.59725 9.99712 6.58301 10.0008 6.57673 10.0032C6.57167 10.0055 6.56282 10.0103 6.55901 10.0128C6.5545 10.0159 6.55074 10.019 6.54772 10.0217ZM6.54772 10.0217C6.54626 10.0231 6.54498 10.0243 6.54387 10.0255H6.54337C6.54343 10.0254 6.54349 10.0253 6.54355 10.0253C6.54458 10.0243 6.54604 10.0231 6.54772 10.0217ZM6.62883 10.0575C6.62772 10.057 6.62663 10.0566 6.62558 10.0563C6.62061 10.0556 6.61452 10.0553 6.60802 10.0555C6.59079 10.0559 6.57061 10.059 6.56042 10.0628C6.55103 10.0678 6.53654 10.0783 6.5312 10.0833C6.52794 10.0868 6.52288 10.093 6.52043 10.0963L6.52255 10.097M6.62883 10.0575L6.51549 10.1255C6.51484 10.1231 6.51426 10.1209 6.51395 10.1195L6.51344 10.1165L6.51473 10.1166C6.51459 10.1158 6.51446 10.1151 6.51435 10.1145L6.51308 10.1143L6.51301 10.1139L6.51392 10.1118C6.51387 10.1115 6.51383 10.1112 6.51379 10.1109C6.51378 10.1108 6.51378 10.1108 6.51377 10.1107L6.51435 10.1108L6.51462 10.1102C6.51492 10.1096 6.51531 10.1089 6.51577 10.1081C6.51586 10.1079 6.51596 10.1077 6.51606 10.1076C6.51589 10.1062 6.51577 10.1049 6.51568 10.1038C6.51568 10.1038 6.51568 10.1038 6.51568 10.1038L6.51568 10.1038C6.51563 10.1032 6.51559 10.1027 6.51556 10.1022C6.51553 10.1018 6.51551 10.1015 6.51549 10.1011L6.51704 10.1016C6.51706 10.1015 6.51708 10.1015 6.5171 10.1015C6.51778 10.1004 6.51848 10.0992 6.51911 10.0983L6.52131 10.0989C6.52172 10.0983 6.52214 10.0976 6.52255 10.097M6.62883 10.0575L6.62726 10.0626C6.62092 10.0613 6.61441 10.0602 6.60802 10.0595C6.59411 10.0579 6.58074 10.0578 6.57079 10.0599C6.55441 10.0675 6.53212 10.0851 6.52537 10.0929C6.5245 10.0941 6.52354 10.0955 6.52255 10.097M6.52255 10.097L6.60802 10.1255" fill="#F1738F" stroke="#F1738F" stroke-width="0.2"/>
</svg>
