<svg width="16" height="16" viewBox="0 0 16 16" fill="none" xmlns="http://www.w3.org/2000/svg">
<path d="M12 9V4H14V6H16V8H14V9C14 9.26522 14.1054 9.51957 14.2929 9.70711C14.4804 9.89464 14.7348 10 15 10H16V12H15C14.2044 12 13.4413 11.6839 12.8787 11.1213C12.3161 10.5587 12 9.79565 12 9Z" fill="#FFDE66"/>
<path d="M5 12V6H7H8C8.79565 6 9.55871 6.31607 10.1213 6.87868C10.6839 7.44129 11 8.20435 11 9V12H9V9C9 8.73478 8.89464 8.48043 8.70711 8.29289C8.51957 8.10536 8.26522 8 8 8H7V12H5Z" fill="#FFDE66"/>
<path d="M1.23223 7.23223C1.70107 6.76339 2.33696 6.5 3 6.5H3.5V7.5H3C2.60217 7.5 2.22064 7.65804 1.93934 7.93934C1.77964 8.09904 1.65967 8.29105 1.58579 8.5H0.5505C0.647818 8.02328 0.883042 7.58142 1.23223 7.23223Z" stroke="#FFDE66"/>
<path d="M1.23223 10.7678C1.70107 11.2366 2.33696 11.5 3 11.5H3.5V10.5H3C2.60217 10.5 2.22064 10.342 1.93934 10.0607C1.77964 9.90096 1.65967 9.70895 1.58579 9.5H0.5505C0.647818 9.97672 0.883042 10.4186 1.23223 10.7678Z" stroke="#FFDE66"/>
</svg>
