<svg width="16" height="16" viewBox="0 0 16 16" fill="none" xmlns="http://www.w3.org/2000/svg">
<g clip-path="url(#clip0_75_4)">
<path d="M5 4V6H7V4H5ZM13 4V9C13 9.79565 13.3161 10.5587 13.8787 11.1213C14.4413 11.6839 15.2044 12 16 12H17V10H16C15.7348 10 15.4804 9.89464 15.2929 9.70711C15.1054 9.51957 15 9.26522 15 9V8H17V6H15V4H13ZM8 6V12H10V8C10.2652 8 10.5196 8.10536 10.7071 8.29289C10.8946 8.48043 11 8.73478 11 9V12H13V9C13 8.20435 12.6839 7.44129 12.1213 6.87868C11.5587 6.31607 10.7956 6 10 6H8ZM5 8V12H7V8H5Z" fill="#5ABBEF"/>
<path fill-rule="evenodd" clip-rule="evenodd" d="M3 4V6C2.20435 6 1.44129 6.31607 0.878679 6.87868C0.31607 7.44129 0 8.20435 0 9C0 9.79565 0.31607 10.5587 0.878679 11.1213C1.44129 11.6839 2.20435 12 3 12H5V4H3ZM3 8H4V10H3C2.73478 10 2.48043 9.89464 2.29289 9.70711C2.10536 9.51957 2 9.26522 2 9C2 8.73478 2.10536 8.48043 2.29289 8.29289C2.48043 8.10536 2.73478 8 3 8Z" fill="#B4E2FA"/>
</g>
<defs>
<clipPath id="clip0_75_4">
<rect width="16" height="16" fill="white"/>
</clipPath>
</defs>
</svg>
