<svg width="16" height="16" viewBox="0 0 16 16" fill="none" xmlns="http://www.w3.org/2000/svg">
<path d="M13.8787 6.87868C14.4413 6.31607 15.2044 6 16 6V8C15.7348 8 15.4804 8.10536 15.2929 8.29289C15.1054 8.48043 15 8.73478 15 9V12H13V9C13 8.20435 13.3161 7.44129 13.8787 6.87868Z" fill="#41EC80"/>
<path fill-rule="evenodd" clip-rule="evenodd" d="M3 4V6C2.20435 6 1.44129 6.31607 0.878679 6.87868C0.31607 7.44129 0 8.20435 0 9C0 9.79565 0.31607 10.5587 0.878679 11.1213C1.44129 11.6839 2.20435 12 3 12H5V4H3ZM3 8H4V10H3C2.73478 10 2.48043 9.89464 2.29289 9.70711C2.10536 9.51957 2 9.26522 2 9C2 8.73478 2.10536 8.48043 2.29289 8.29289C2.48043 8.10536 2.73478 8 3 8Z" fill="#9FF6BF"/>
<path d="M12 6L12 12H10C9.20435 12 9.06261 12.0626 8.5 11.5C7.93739 10.9374 8 9.79565 8 9V8H9L9 9C9 9.26522 9.10536 9.51957 9.29289 9.70711C9.48043 9.89464 9.73478 10 10 10L10 6L12 6Z" fill="#41EC80"/>
<path d="M9 8L9 12H8C7.20435 12 6.44129 11.6839 5.87868 11.1213C5.31607 10.5587 5 9.79565 5 9L5 6L7 6L7 9C7 9.26522 7.10536 9.51957 7.29289 9.70711C7.48043 9.89464 7.73478 10 8 10V8H9Z" fill="#41EC80"/>
</svg>
