<svg width="16" height="16" viewBox="0 0 16 16" fill="none" xmlns="http://www.w3.org/2000/svg">
<path d="M6.026 5.42386L7.4 4.04352V9.79895C7.4 9.95812 7.46321 10.1108 7.57574 10.2233C7.68826 10.3359 7.84087 10.3991 8 10.3991C8.15913 10.3991 8.31174 10.3359 8.42426 10.2233C8.53679 10.1108 8.6 9.95812 8.6 9.79895V4.04352L9.974 5.42386C10.0298 5.48011 10.0961 5.52476 10.1693 5.55523C10.2424 5.5857 10.3208 5.60139 10.4 5.60139C10.4792 5.60139 10.5576 5.5857 10.6307 5.55523C10.7039 5.52476 10.7702 5.48011 10.826 5.42386C10.8822 5.36807 10.9269 5.30169 10.9573 5.22856C10.9878 5.15543 11.0035 5.07698 11.0035 4.99776C11.0035 4.91853 10.9878 4.84009 10.9573 4.76695C10.9269 4.69382 10.8822 4.62744 10.826 4.57165L8.426 2.17105C8.36894 2.11641 8.30165 2.07358 8.228 2.04502C8.08192 1.98499 7.91808 1.98499 7.772 2.04502C7.69835 2.07358 7.63106 2.11641 7.574 2.17105L5.174 4.57165C5.11806 4.62761 5.07368 4.69404 5.0434 4.76715C5.01313 4.84026 4.99755 4.91862 4.99755 4.99776C4.99755 5.07689 5.01313 5.15525 5.0434 5.22836C5.07368 5.30147 5.11806 5.3679 5.174 5.42386C5.22994 5.47982 5.29636 5.52421 5.36945 5.55449C5.44254 5.58477 5.52088 5.60036 5.6 5.60036C5.67912 5.60036 5.75746 5.58477 5.83055 5.55449C5.90364 5.52421 5.97006 5.47982 6.026 5.42386ZM13.4 9.1988C13.2409 9.1988 13.0883 9.26203 12.9757 9.37458C12.8632 9.48713 12.8 9.63978 12.8 9.79895V12.1996C12.8 12.3587 12.7368 12.5114 12.6243 12.6239C12.5117 12.7365 12.3591 12.7997 12.2 12.7997H3.8C3.64087 12.7997 3.48826 12.7365 3.37574 12.6239C3.26321 12.5114 3.2 12.3587 3.2 12.1996V9.79895C3.2 9.63978 3.13679 9.48713 3.02426 9.37458C2.91174 9.26203 2.75913 9.1988 2.6 9.1988C2.44087 9.1988 2.28826 9.26203 2.17574 9.37458C2.06321 9.48713 2 9.63978 2 9.79895V12.1996C2 12.6771 2.18964 13.135 2.52721 13.4727C2.86477 13.8103 3.32261 14 3.8 14H12.2C12.6774 14 13.1352 13.8103 13.4728 13.4727C13.8104 13.135 14 12.6771 14 12.1996V9.79895C14 9.63978 13.9368 9.48713 13.8243 9.37458C13.7117 9.26203 13.5591 9.1988 13.4 9.1988Z" fill="#8DA5F3" stroke="#8DA5F3" stroke-width="0.4"/>
</svg>
