<svg width="16" height="16" viewBox="0 0 16 16" fill="none" xmlns="http://www.w3.org/2000/svg">
<path fill-rule="evenodd" clip-rule="evenodd" d="M4.17422 4.11111C3.92144 4.11111 3.70409 4.26333 3.62994 4.48463C3.40337 5.16078 3.06575 6.19615 2.77072 7.2121C3.20316 7.00532 3.69148 6.88888 4.20833 6.88888C5.71344 6.88888 6.97648 7.87593 7.32275 9.20749C7.51811 9.14799 7.74322 9.1111 8 9.1111C8.25678 9.1111 8.48189 9.14799 8.67725 9.20749C9.02352 7.87593 10.2865 6.88888 11.7917 6.88888C12.3085 6.88888 12.7968 7.00532 13.2293 7.2121C12.9342 6.19615 12.5966 5.16078 12.37 4.48463C12.2959 4.26333 12.0785 4.11111 11.8258 4.11111H10.9167C10.5945 4.11111 10.3333 3.86239 10.3333 3.55556C10.3333 3.24873 10.5945 3 10.9167 3H11.8258C12.5774 3 13.2503 3.45688 13.4815 4.14682C13.7261 4.87676 14.1018 6.02981 14.4168 7.13526C14.5743 7.68765 14.7182 8.23366 14.8232 8.71199C14.8857 8.99666 14.9377 9.27171 14.9688 9.51666C14.9894 9.65644 15 9.79927 15 9.94444C15 11.632 13.5636 13 11.7917 13C10.2016 13 8.88177 11.8984 8.62755 10.4529C8.4767 10.2801 8.22668 10.2222 8 10.2222C7.77332 10.2222 7.5233 10.2801 7.37245 10.4529C7.11823 11.8984 5.79837 13 4.20833 13C2.43642 13 1 11.632 1 9.94444C1 9.79927 1.01063 9.65644 1.0312 9.51666C1.06228 9.27171 1.1143 8.99666 1.17679 8.71199C1.28177 8.23366 1.42569 7.68765 1.58315 7.13526C1.89824 6.02981 2.27391 4.87676 2.5185 4.14682C2.74969 3.45688 3.42266 3 4.17422 3H5.08333C5.4055 3 5.66667 3.24873 5.66667 3.55556C5.66667 3.86239 5.4055 4.11111 5.08333 4.11111H4.17422ZM2.17245 9.94444C2.17245 11.0153 3.08395 11.8834 4.20833 11.8834C5.33272 11.8834 6.24421 11.0153 6.24421 9.94444C6.24421 8.8736 5.33272 8.00554 4.20833 8.00554C3.08395 8.00554 2.17245 8.8736 2.17245 9.94444ZM9.75577 9.94444C9.75577 11.0153 10.6673 11.8834 11.7917 11.8834C12.916 11.8834 13.8276 11.0153 13.8276 9.94444C13.8276 8.8736 12.916 8.00554 11.7917 8.00554C10.6673 8.00554 9.75577 8.8736 9.75577 9.94444Z" fill="white" stroke="white" stroke-width="0.5"/>
</svg>
