<svg width="32" height="34" viewBox="0 0 32 34" fill="none" xmlns="http://www.w3.org/2000/svg">
<path d="M28.3621 21.6814C28.3621 21.6814 28.3194 21.4196 28.2945 21.422L23.5448 21.8802C23.1669 21.9167 22.8734 22.2181 22.8469 22.5968L22.7164 24.467L19.0419 24.7292L18.7919 23.0342C18.7363 22.6572 18.407 22.373 18.026 22.373H13.013C12.6321 22.373 12.3028 22.6572 12.2472 23.0342L11.9971 24.7292L8.32259 24.467L8.19211 22.5968C8.16559 22.218 7.87207 21.9166 7.49414 21.8801L2.74215 21.422C2.7176 21.4196 2.69962 21.6816 2.67507 21.6816L2.66864 22.7095L6.69313 23.3585L6.82492 25.2453C6.85157 25.6273 7.15979 25.9362 7.54205 25.9637L12.6027 26.3247C12.6218 26.326 12.6407 26.3268 12.6596 26.3268C13.0399 26.3268 13.3686 26.0424 13.4243 25.6654L13.6814 23.9214H17.3577L17.6148 25.6654C17.6704 26.0423 17.9994 26.3266 18.3803 26.3266C18.3989 26.3266 18.4175 26.326 18.4358 26.3247L23.4971 25.9637C23.8792 25.9362 24.1875 25.6273 24.2142 25.2453L24.3458 23.3585L28.3686 22.7066L28.3621 21.6814Z" fill="white"/>
<path d="M12.564 2.00133C12.4924 1.99813 12.4208 2.00648 12.3508 2.02184C10.9647 2.33 9.57072 2.76342 8.24525 3.43059C7.93838 3.58505 7.74825 3.90279 7.75712 4.24621C7.78105 5.16995 7.86164 6.06861 7.96337 6.97559C7.61854 7.18199 7.27405 7.36981 6.89399 7.67496C6.62342 7.88274 6.32167 8.14643 6.0265 8.39059C5.33892 7.95878 4.6442 7.52901 3.90839 7.15871C3.55559 6.98108 3.12782 7.05802 2.85902 7.34746C1.85854 8.4242 0.907496 9.60225 0.122152 10.9388C-0.0444532 11.2226 -0.0403636 11.5752 0.132777 11.8551C0.652169 12.6952 1.20535 13.4805 1.78778 14.2419V23.7795C1.78778 26.4109 3.53882 28.4182 6.04346 29.6157C8.54804 30.8133 11.8627 31.3604 15.5078 31.3732H15.5315C19.1767 31.3604 22.4912 30.8134 24.9952 29.6157C27.4992 28.418 29.2496 26.4106 29.2496 23.7795L29.2509 14.4896C29.8425 13.6218 30.3333 12.7827 30.9065 11.8558C31.0794 11.5761 31.0835 11.2239 30.9171 10.9402C30.1319 9.60356 29.18 8.42501 28.1796 7.34824C27.9109 7.05909 27.4835 6.98214 27.1309 7.15945C26.3954 7.52969 25.7004 7.96018 25.0128 8.39195C24.7176 8.14763 24.4168 7.88393 24.1453 7.6757C24.1442 7.6757 24.1432 7.6757 24.1421 7.6725C23.7628 7.36818 23.4194 7.18066 23.0759 6.975C23.1774 6.06812 23.2581 5.16924 23.2821 4.24562C23.291 3.90217 23.1009 3.58446 22.794 3.43C21.4685 2.76293 20.0746 2.32944 18.6878 2.02125C18.3138 1.93821 17.9287 2.10453 17.7328 2.43375C17.2846 3.18697 16.9002 3.98744 16.5284 4.77812C16.1971 4.74804 15.8609 4.70196 15.5403 4.69812C15.5367 4.69809 15.5332 4.69809 15.5296 4.69812H15.5103C15.5067 4.69809 15.5032 4.69809 15.4996 4.69812C15.1783 4.70196 14.8417 4.74792 14.5103 4.77812C14.1534 4.01892 13.7817 3.25353 13.3534 2.52687C13.3392 2.49468 13.3232 2.4634 13.3053 2.43312C13.1491 2.17088 12.8691 2.0073 12.564 2L12.564 2.00133Z" fill="white"/>
<path d="M8.64396 4.20036C9.88386 3.57629 11.2063 3.16254 12.5432 2.86536C13.078 3.76286 13.5655 4.73553 13.9905 5.68567C14.495 5.60141 15.0013 5.57023 15.5096 5.56415H15.5192H15.529C16.0364 5.57019 16.5431 5.60141 17.0474 5.68567C17.4727 4.73553 17.9611 3.76364 18.4951 2.86614C19.8327 3.16332 21.155 3.57711 22.3949 4.20114C22.3665 5.29589 22.2957 6.3449 22.1526 7.41043C22.6332 7.71891 23.1399 7.98366 23.5895 8.34481C24.0471 8.69633 24.513 9.03266 24.9266 9.44379C25.7532 8.89707 26.6284 8.38326 27.5294 7.92969C28.5009 8.9752 29.4099 10.1037 30.1517 11.3665C29.5931 12.2696 29.0107 13.1162 28.3812 13.9196H28.3636L28.3623 23.7569C28.3623 28.2691 22.6401 30.4378 15.5284 30.4628H15.511C8.3993 30.4378 2.67514 28.2692 2.67514 23.7569L2.67514 13.9188H2.65752C2.0282 13.1154 1.44539 12.2689 0.887085 11.3657C1.62913 10.103 2.53755 8.97452 3.50907 7.92895C4.41038 8.38252 5.28526 8.89626 6.11185 9.44301C6.52565 9.03188 6.99233 8.69551 7.44929 8.34399C7.89905 7.9829 8.40507 7.71817 8.88657 7.40965C8.74309 6.34415 8.67232 5.29517 8.64396 4.20036Z" fill="#478CBF"/>
<path d="M13.2222 21.1857L10.2222 18.1857C8.22226 20.1857 7.2222 21.6857 8.72223 23.1857C10.2223 24.6857 12.1696 22.9046 13.2222 21.1857Z" fill="black" stroke="white"/>
<path d="M11.2222 16.6857L14.3844 20.3121C21.2223 17.1857 21.2657 13.141 19.7222 11.6857C18.1788 10.2305 13.7223 11.1857 11.2222 16.6857Z" fill="black" stroke="white"/>
<mask id="path-6-outside-1_99_35" maskUnits="userSpaceOnUse" x="15.4805" y="16.3427" width="6" height="9" fill="black">
<rect fill="white" x="15.4805" y="16.3427" width="6" height="9"/>
<path d="M19.0385 18.3427H16.8185V17.3427H20.1185V18.3027L18.3985 24.3427H17.2785L19.0385 18.3427Z"/>
</mask>
<path d="M19.0385 18.3427H16.8185V17.3427H20.1185V18.3027L18.3985 24.3427H17.2785L19.0385 18.3427Z" fill="#478CBF"/>
<path d="M19.0385 18.3427L19.9981 18.6241L20.374 17.3427H19.0385V18.3427ZM16.8185 18.3427H15.8185V19.3427H16.8185V18.3427ZM16.8185 17.3427V16.3427H15.8185V17.3427H16.8185ZM20.1185 17.3427H21.1185V16.3427H20.1185V17.3427ZM20.1185 18.3027L21.0803 18.5765L21.1185 18.4423V18.3027H20.1185ZM18.3985 24.3427V25.3427H19.1535L19.3603 24.6165L18.3985 24.3427ZM17.2785 24.3427L16.319 24.0612L15.9431 25.3427H17.2785V24.3427ZM19.0385 18.3427V17.3427H16.8185V18.3427V19.3427H19.0385V18.3427ZM16.8185 18.3427H17.8185V17.3427H16.8185H15.8185V18.3427H16.8185ZM16.8185 17.3427V18.3427H20.1185V17.3427V16.3427H16.8185V17.3427ZM20.1185 17.3427H19.1185V18.3027H20.1185H21.1185V17.3427H20.1185ZM20.1185 18.3027L19.1568 18.0288L17.4368 24.0688L18.3985 24.3427L19.3603 24.6165L21.0803 18.5765L20.1185 18.3027ZM18.3985 24.3427V23.3427H17.2785V24.3427V25.3427H18.3985V24.3427ZM17.2785 24.3427L18.2381 24.6241L19.9981 18.6241L19.0385 18.3427L18.079 18.0612L16.319 24.0612L17.2785 24.3427Z" fill="white" mask="url(#path-6-outside-1_99_35)"/>
</svg>
