<svg width="16" height="16" viewBox="0 0 16 16" fill="none" xmlns="http://www.w3.org/2000/svg">
<path d="M9.974 10.5761L8.6 11.9565L8.6 6.20105C8.6 6.04188 8.53678 5.88923 8.42426 5.77668C8.31174 5.66413 8.15913 5.6009 8 5.6009C7.84087 5.6009 7.68826 5.66413 7.57574 5.77668C7.46321 5.88923 7.4 6.04188 7.4 6.20105L7.4 11.9565L6.026 10.5761C5.97022 10.5199 5.90386 10.4752 5.83075 10.4448C5.75763 10.4143 5.67921 10.3986 5.6 10.3986C5.52079 10.3986 5.44237 10.4143 5.36925 10.4448C5.29614 10.4752 5.22978 10.5199 5.174 10.5761C5.11776 10.6319 5.07313 10.6983 5.04266 10.7714C5.0122 10.8446 4.99652 10.923 4.99652 11.0022C4.99652 11.0815 5.0122 11.1599 5.04266 11.233C5.07313 11.3062 5.11776 11.3726 5.174 11.4284L7.574 13.8289C7.63106 13.8836 7.69835 13.9264 7.772 13.955C7.91808 14.015 8.08192 14.015 8.228 13.955C8.30165 13.9264 8.36894 13.8836 8.426 13.8289L10.826 11.4284C10.8819 11.3724 10.9263 11.306 10.9566 11.2329C10.9869 11.1597 11.0025 11.0814 11.0025 11.0022C11.0025 10.9231 10.9869 10.8447 10.9566 10.7716C10.9263 10.6985 10.8819 10.6321 10.826 10.5761C10.7701 10.5202 10.7036 10.4758 10.6305 10.4455C10.5575 10.4152 10.4791 10.3996 10.4 10.3996C10.3209 10.3996 10.2425 10.4152 10.1694 10.4455C10.0964 10.4758 10.0299 10.5202 9.974 10.5761ZM2.6 6.8012C2.75913 6.8012 2.91174 6.73797 3.02426 6.62542C3.13679 6.51287 3.2 6.36022 3.2 6.20105L3.2 3.80045C3.2 3.64128 3.26321 3.48863 3.37573 3.37608C3.48826 3.26353 3.64087 3.2003 3.8 3.2003L12.2 3.2003C12.3591 3.2003 12.5117 3.26353 12.6243 3.37608C12.7368 3.48863 12.8 3.64128 12.8 3.80045L12.8 6.20105C12.8 6.36022 12.8632 6.51287 12.9757 6.62542C13.0883 6.73797 13.2409 6.8012 13.4 6.8012C13.5591 6.8012 13.7117 6.73797 13.8243 6.62542C13.9368 6.51287 14 6.36022 14 6.20105L14 3.80045C14 3.32294 13.8104 2.86499 13.4728 2.52734C13.1352 2.18969 12.6774 2 12.2 2L3.8 2C3.32261 2 2.86477 2.18969 2.52721 2.52734C2.18964 2.86499 2 3.32294 2 3.80045L2 6.20105C2 6.36022 2.06321 6.51287 2.17573 6.62542C2.28826 6.73797 2.44087 6.8012 2.6 6.8012Z" fill="#8DA5F3" stroke="#8DA5F3" stroke-width="0.4"/>
</svg>
