<svg width="16" height="16" viewBox="0 0 16 16" fill="none" xmlns="http://www.w3.org/2000/svg">
<path d="M8 6C7.20435 6 6.44129 6.31607 5.87868 6.87868C5.31607 7.44129 5 8.20435 5 9V12H7V9C7 8.73478 7.10536 8.48043 7.29289 8.29289C7.48043 8.10536 7.73478 8 8 8H9V6H8Z" fill="#35D4F4"/>
<path d="M14 7.346C14 7 13.8202 6.56158 13.3576 6.3262C12.895 6.09082 12.3792 5.97949 11.8607 6.00311C11.3421 6.02672 10.8386 6.18447 10.3993 6.46092C9.96 6.73738 9.59994 7.12308 9.35431 7.58034C9.35431 7.58034 8.9859 8.55077 8.99796 9.06969C9.01001 9.5886 9.1565 10.0955 9.4231 10.5409C9.6897 10.9862 10.0673 11.3548 10.519 11.6106C10.9706 11.8663 11.4809 12.0005 12 12H13V10H12C11.7348 10 11.4804 9.89464 11.2929 9.70711C11.1054 9.51957 11 9.26522 11 9H14V7.346Z" fill="#35D4F4"/>
<rect x="2" y="4" width="2" height="8" fill="#8AE2F4"/>
</svg>
