<svg width="16" height="16" viewBox="0 0 16 16" fill="none" xmlns="http://www.w3.org/2000/svg">
<path d="M4 2C3.73478 2 3.48043 2.10536 3.29289 2.29289C3.10536 2.48043 3 2.73478 3 3C3 3.26522 3.10536 3.51957 3.29289 3.70711C3.48043 3.89464 3.73478 4 4 4C6.12173 4 8.15656 4.84285 9.65685 6.34315C11.1571 7.84344 12 9.87827 12 12C12 12.2652 12.1054 12.5196 12.2929 12.7071C12.4804 12.8946 12.7348 13 13 13C13.2652 13 13.5196 12.8946 13.7071 12.7071C13.8946 12.5196 14 12.2652 14 12C14 10.6868 13.7413 9.38642 13.2388 8.17317C12.7362 6.95991 11.9997 5.85752 11.0711 4.92893C10.1425 4.00035 9.04009 3.26375 7.82683 2.7612C6.61358 2.25866 5.31322 2 4 2ZM4 6C3.73478 6 3.48043 6.10536 3.29289 6.29289C3.10536 6.48043 3 6.73478 3 7C3 7.26522 3.10536 7.51957 3.29289 7.70711C3.48043 7.89464 3.73478 8 4 8C5.06087 8 6.07828 8.42143 6.82843 9.17157C7.57857 9.92172 8 10.9391 8 12C8 12.2652 8.10536 12.5196 8.29289 12.7071C8.48043 12.8946 8.73478 13 9 13C9.26522 13 9.51957 12.8946 9.70711 12.7071C9.89464 12.5196 10 12.2652 10 12C10 10.4087 9.36786 8.88258 8.24264 7.75736C7.11742 6.63214 5.5913 6 4 6ZM4 10C3.46957 10 2.96086 10.2107 2.58579 10.5858C2.21071 10.9609 2 11.4696 2 12C2 12.5304 2.21071 13.0391 2.58579 13.4142C2.96086 13.7893 3.46957 14 4 14C4.53043 14 5.03914 13.7893 5.41421 13.4142C5.78929 13.0391 6 12.5304 6 12C6 11.4696 5.78929 10.9609 5.41421 10.5858C5.03914 10.2107 4.53043 10 4 10Z" fill="#8DA5F3"/>
</svg>
