<svg width="16" height="16" viewBox="0 0 16 16" fill="none" xmlns="http://www.w3.org/2000/svg">
<g clip-path="url(#clip0_61_49)">
<path d="M15.2727 5.81818C15.6743 5.81818 16 5.49256 16 5.09091C16 4.68926 15.6743 4.36364 15.2727 4.36364H13.576V3.15088C13.576 2.74924 13.2504 2.42361 12.8487 2.42361H11.6365V0.727273C11.6365 0.325624 11.3108 0 10.9092 0C10.5075 0 10.1819 0.325624 10.1819 0.727273V2.42361H8.72761V0.727273C8.72761 0.325624 8.40199 0 8.00034 0C7.59869 0 7.27307 0.325624 7.27307 0.727273V2.42361H5.81857V0.727273C5.81857 0.325624 5.4929 0 5.0913 0C4.6896 0 4.36402 0.325624 4.36402 0.727273V2.42361H3.15171C2.75006 2.42361 2.42444 2.74924 2.42444 3.15088V4.36364H0.727273C0.325624 4.36364 0 4.68926 0 5.09091C0 5.49256 0.325624 5.81818 0.727273 5.81818H2.42444V7.27253H0.727273C0.325624 7.27253 0 7.59816 0 7.99981C0 8.40145 0.325624 8.72708 0.727273 8.72708H2.42444V10.1818H0.727273C0.325624 10.1818 0 10.5074 0 10.9091C0 11.3107 0.325624 11.6364 0.727273 11.6364H2.42444V12.8487C2.42444 13.2503 2.75006 13.576 3.15171 13.576H4.36402V15.2727C4.36402 15.6744 4.6896 16 5.0913 16C5.4929 16 5.81857 15.6744 5.81857 15.2727V13.576H7.27307V15.2727C7.27307 15.6744 7.59869 16 8.00034 16C8.40199 16 8.72761 15.6744 8.72761 15.2727V13.576H10.1819V15.2727C10.1819 15.6744 10.5075 16 10.9092 16C11.3108 16 11.6365 15.6744 11.6365 15.2727V13.576H12.8487C13.2504 13.576 13.576 13.2503 13.576 12.8487V11.6364H15.2727C15.6743 11.6364 16 11.3107 16 10.9091C16 10.5074 15.6743 10.1818 15.2727 10.1818H13.576V8.72708H15.2727C15.6743 8.72708 16 8.40145 16 7.99981C16 7.59816 15.6743 7.27253 15.2727 7.27253H13.576V5.81818H15.2727ZM10.6668 9.93939C10.6668 10.341 10.3411 10.6667 9.93949 10.6667H6.06099C5.6593 10.6667 5.33372 10.341 5.33372 9.93939V6.06061C5.33372 5.65896 5.6593 5.33333 6.06099 5.33333H9.93949C10.3411 5.33333 10.6668 5.65896 10.6668 6.06061V9.93939Z" fill="#8DA5F3"/>
</g>
<defs>
<clipPath id="clip0_61_49">
<rect width="16" height="16" fill="white"/>
</clipPath>
</defs>
</svg>
