<svg width="16" height="16" viewBox="0 0 16 16" fill="none" xmlns="http://www.w3.org/2000/svg">
<path d="M3 6C2.20435 6 1.44129 6.31607 0.87868 6.87868C0.31607 7.44129 0 8.20435 0 9L0 12H2V9C2 8.73478 2.10536 8.48043 2.29289 8.29289C2.48043 8.10536 2.73478 8 3 8H4V6H3Z" fill="#35D4F4"/>
<path d="M9 7.346C9 7 8.82019 6.56158 8.35757 6.3262C7.89496 6.09082 7.37918 5.97949 6.86066 6.00311C6.34214 6.02672 5.83862 6.18447 5.39931 6.46092C4.96 6.73738 4.59994 7.12308 4.35431 7.58034C4.35431 7.58034 3.9859 8.55077 3.99796 9.06969C4.01001 9.5886 4.1565 10.0955 4.4231 10.5409C4.6897 10.9862 5.06729 11.3548 5.51896 11.6106C5.97064 11.8663 6.48094 12.0005 7 12H8V10H7C6.73478 10 6.48043 9.89464 6.29289 9.70711C6.10536 9.51957 6 9.26522 6 9H9V7.346Z" fill="#35D4F4"/>
<rect x="14" y="4" width="2" height="8" fill="#35D4F4"/>
<path d="M9.98792 11.6738C9.58787 11.4384 9.24747 11.087 9 10.654L9.00202 9L9.43238 9L12.0266 9C12.0266 8.73478 11.9355 8.48043 11.7734 8.29289C11.6112 8.10536 11.3912 8 11.1619 8L10.2971 8L10.2971 6L11.1619 6C11.6107 5.99951 12.052 6.13369 12.4426 6.38945C12.8332 6.6452 13.1597 7.01377 13.3903 7.45913C13.6208 7.90449 13.7475 8.4114 13.7579 8.93031C13.7684 9.44923 13.4498 10.4197 13.4498 10.4197C13.2374 10.8769 12.926 11.2626 12.5461 11.5391C12.1662 11.8155 11.7308 11.9733 11.2824 11.9969C10.834 12.0205 10.388 11.9092 9.98792 11.6738Z" fill="#35D4F4"/>
</svg>
