<svg width="16" height="16" viewBox="0 0 16 16" fill="none" xmlns="http://www.w3.org/2000/svg">
<path d="M11.5762 8.93311L9.64258 5.99512H11.501L12.5 7.7998L13.5151 5.99512H15.3735L13.4131 8.93311L15.4595 12H13.6011L12.5 10.0557L11.3989 12H9.54053L11.5762 8.93311Z" fill="#A0C4ED"/>
<path d="M5 4H3C2.33696 4 1.70107 4.26339 1.23223 4.73223C0.763392 5.20107 0.5 5.83696 0.5 6.5C0.5 7.16304 0.763392 7.79893 1.23223 8.26777C1.70107 8.73661 2.33696 9 3 9C3.13261 9 3.25979 9.05268 3.35355 9.14645C3.44732 9.24021 3.5 9.36739 3.5 9.5C3.5 9.63261 3.44732 9.75979 3.35355 9.85355C3.25979 9.94732 3.13261 10 3 10H0V12H3C3.66304 12 4.29893 11.7366 4.76777 11.2678C5.23661 10.7989 5.5 10.163 5.5 9.5C5.5 8.83696 5.23661 8.20107 4.76777 7.73223C4.29893 7.26339 3.66304 7 3 7C2.86739 7 2.74021 6.94732 2.64645 6.85355C2.55268 6.75979 2.5 6.63261 2.5 6.5C2.5 6.36739 2.55268 6.24021 2.64645 6.14645C2.74021 6.05268 2.86739 6 3 6H5V4ZM6 4V9C6 9.79565 6.31607 10.5587 6.87868 11.1213C7.44129 11.6839 8.20435 12 9 12V10C8.73478 10 8.48043 9.89464 8.29289 9.70711C8.10536 9.51957 8 9.26522 8 9V8H9V6H8V4H6Z" fill="#4593EC"/>
</svg>
