<svg width="16" height="16" viewBox="0 0 16 16" fill="none" xmlns="http://www.w3.org/2000/svg">
<path d="M4 12.0021L4 6.00208L6 6.00208C6.79565 6.00208 6.93739 5.93947 7.5 6.50208C8.06261 7.06468 8 8.20643 8 9.00208L8 10.0021L7 10.0021L7 9.00208C7 8.73686 6.89464 8.48251 6.70711 8.29497C6.51957 8.10743 6.26522 8.00208 6 8.00208L6 12.0021L4 12.0021Z" fill="#E0893D"/>
<path d="M7 10.0021L7 6.00208L8 6.00207C8.79565 6.00207 9.55871 6.31815 10.1213 6.88076C10.6839 7.44336 11 8.20643 11 9.00208L11 12.0021L9 12.0021L9 9.00208C9 8.73686 8.89464 8.48251 8.70711 8.29497C8.51957 8.10743 8.26522 8.00207 8 8.00207L8 10.0021L7 10.0021Z" fill="#E0893D"/>
<path d="M0 9V4H2V6H4V8H2V9C2 9.26522 2.10536 9.51957 2.29289 9.70711C2.48043 9.89464 2.73478 10 3 10H4V12H3C2.20435 12 1.44129 11.6839 0.878679 11.1213C0.31607 10.5587 0 9.79565 0 9Z" fill="#E9B07D"/>
<path d="M14.7703 6.3262C15.1703 6.56158 15.5107 6.91296 15.7582 7.346L15.7562 9H15.3258H12.7315C12.7315 9.26522 12.8226 9.51957 12.9848 9.70711C13.147 9.89464 13.3669 10 13.5963 10H14.461V12H13.5963C13.1474 12.0005 12.7061 11.8663 12.3156 11.6106C11.925 11.3548 11.5984 10.9862 11.3679 10.5409C11.1374 10.0955 11.0107 9.5886 11.0003 9.06969C10.9898 8.55077 11.3084 7.58034 11.3084 7.58034C11.5208 7.12308 11.8322 6.73738 12.2121 6.46092C12.592 6.18447 13.0274 6.02672 13.4758 6.00311C13.9242 5.97949 14.3702 6.09082 14.7703 6.3262Z" fill="#E0893D"/>
</svg>
