<svg width="16" height="16" viewBox="0 0 16 16" fill="none" xmlns="http://www.w3.org/2000/svg">
<path d="M5 12.0021L5 6.00208L7 6.00208C7.79565 6.00208 7.93739 5.93947 8.5 6.50208C9.06261 7.06468 9 8.20643 9 9.00208L9 10.0021L8 10.0021L8 9.00208C8 8.73686 7.89464 8.48251 7.70711 8.29497C7.51957 8.10743 7.26522 8.00208 7 8.00208L7 12.0021L5 12.0021Z" fill="#E0893D"/>
<path d="M8 10.0021L8 6.00208L9 6.00207C9.79565 6.00207 10.5587 6.31815 11.1213 6.88076C11.6839 7.44336 12 8.20643 12 9.00208L12 12.0021L10 12.0021L10 9.00208C10 8.73686 9.89464 8.48251 9.70711 8.29497C9.51957 8.10743 9.26522 8.00207 9 8.00207L9 10.0021L8 10.0021Z" fill="#E0893D"/>
<path d="M13.8787 6.87868C14.4413 6.31607 15.2044 6 16 6V8C15.7348 8 15.4804 8.10536 15.2929 8.29289C15.1054 8.48043 15 8.73478 15 9V12H13V9C13 8.20435 13.3161 7.44129 13.8787 6.87868Z" fill="#E0893D"/>
<path d="M0 9V4H2V6H4V8H2V9C2 9.26522 2.10536 9.51957 2.29289 9.70711C2.48043 9.89464 2.73478 10 3 10H4V12H3C2.20435 12 1.44129 11.6839 0.878679 11.1213C0.31607 10.5587 0 9.79565 0 9Z" fill="#E0893D"/>
</svg>
