<svg width="16" height="16" viewBox="0 0 16 16" fill="none" xmlns="http://www.w3.org/2000/svg">
<path d="M5 3C3.67392 3 2.40215 3.52678 1.46447 4.46447C0.526784 5.40215 0 6.67392 0 8C0 9.32608 0.526784 10.5979 1.46447 11.5355C2.40215 12.4732 3.67392 13 5 13H6V11H5C4.20435 11 3.44129 10.6839 2.87868 10.1213C2.31607 9.55871 2 8.79565 2 8C2 7.20435 2.31607 6.44129 2.87868 5.87868C3.44129 5.31607 4.20435 5 5 5H6V3H5ZM10 3V5H11C11.7956 5 12.5587 5.31607 13.1213 5.87868C13.6839 6.44129 14 7.20435 14 8C14 8.79565 13.6839 9.55871 13.1213 10.1213C12.5587 10.6839 11.7956 11 11 11H10V13H11C12.3261 13 13.5979 12.4732 14.5355 11.5355C15.4732 10.5979 16 9.32608 16 8C16 6.67392 15.4732 5.40215 14.5355 4.46447C13.5979 3.52678 12.3261 3 11 3H10ZM6 7C5.73478 7 5.48043 7.10536 5.29289 7.29289C5.10536 7.48043 5 7.73478 5 8C5 8.26522 5.10536 8.51957 5.29289 8.70711C5.48043 8.89464 5.73478 9 6 9H10C10.2652 9 10.5196 8.89464 10.7071 8.70711C10.8946 8.51957 11 8.26522 11 8C11 7.73478 10.8946 7.48043 10.7071 7.29289C10.5196 7.10536 10.2652 7 10 7H6Z" fill="#FF5F5F"/>
</svg>
