<svg width="16" height="16" viewBox="0 0 16 16" fill="none" xmlns="http://www.w3.org/2000/svg">
<path d="M8.87868 6.87868C9.44129 6.31607 10.2044 6 11 6V8C10.7348 8 10.4804 8.10536 10.2929 8.29289C10.1054 8.48043 10 8.73478 10 9V12H8V9C8 8.20435 8.31607 7.44129 8.87868 6.87868Z" fill="#41EC80"/>
<path fill-rule="evenodd" clip-rule="evenodd" d="M14 4V6C13.2044 6 12.4413 6.31607 11.8787 6.87868C11.3161 7.44129 11 8.20435 11 9C11 9.79565 11.3161 10.5587 11.8787 11.1213C12.4413 11.6839 13.2044 12 14 12H16V4H14ZM14 8H15V10H14C13.7348 10 13.4804 9.89464 13.2929 9.70711C13.1054 9.51957 13 9.26522 13 9C13 8.73478 13.1054 8.48043 13.2929 8.29289C13.4804 8.10536 13.7348 8 14 8Z" fill="#41EC80"/>
<path d="M7 6L7 12H5C4.20435 12 4.06261 12.0626 3.5 11.5C2.93739 10.9374 3 9.79565 3 9V8H4L4 9C4 9.26522 4.10536 9.51957 4.29289 9.70711C4.48043 9.89464 4.73478 10 5 10L5 6L7 6Z" fill="#41EC80"/>
<path d="M4 8L4 12H3C2.20435 12 1.44129 11.6839 0.878679 11.1213C0.31607 10.5587 -6.95579e-08 9.79565 0 9L2.38419e-07 6L2 6L2 9C2 9.26522 2.10536 9.51957 2.29289 9.70711C2.48043 9.89464 2.73478 10 3 10V8H4Z" fill="#41EC80"/>
</svg>
